<svg height="512pt" viewBox="0 0 512 512" width="512pt" xmlns="http://www.w3.org/2000/svg"><path d="m85.5 406.535156-75.5 95.464844h369l-75.769531-95.464844zm0 0" fill="#d8d8e4"/><path d="m278.75 10h-168.5c-55.367188 0-100.25 44.882812-100.25 100.25v240.296875c0 30.921875 25.070312 55.992187 55.992188 55.992187h257.015624c30.925782 0 55.992188-25.070312 55.992188-55.992187v-240.296875c0-55.367188-44.882812-100.25-100.25-100.25zm0 0" fill="#6a80ff"/><path d="m10 109.132812h369v176.238282h-369zm0 0" fill="#fff"/><path d="m470 472.9375h-182c-17.671875 0-32-14.328125-32-32v-155c0-17.671875 14.328125-32 32-32h182c17.671875 0 32 14.328125 32 32v155c0 17.671875-14.328125 32-32 32zm0 0" fill="#ff5d5d"/><path d="m500.574219 318h-243.148438l-1.425781-.992188v123.929688c0 17.671875 14.328125 32 32 32h182c17.671875 0 32-14.328125 32-32v-124.316406zm0 0" fill="#fff"/><path d="m80.679688 355.960938c2.628906 0 5.199218-1.070313 7.070312-2.929688 1.859375-1.871094 2.921875-4.441406 2.921875-7.082031 0-2.628907-1.0625-5.210938-2.921875-7.070313s-4.441406-2.917968-7.070312-2.917968c-2.640626 0-5.210938 1.058593-7.078126 2.917968-1.863281 1.859375-2.921874 4.441406-2.921874 7.070313 0 2.640625 1.058593 5.222656 2.921874 7.082031 1.867188 1.859375 4.4375 2.929688 7.078126 2.929688zm0 0"/><path d="m470 243.9375h-29v-14.0625c0-5.523438-4.476562-10-10-10s-10 4.476562-10 10v14.0625h-32v-14.0625c0-5.523438-4.476562-10-10-10s-10 4.476562-10 10v14.0625h-32v-14.0625c0-5.523438-4.476562-10-10-10s-10 4.476562-10 10v14.0625h-29c-19.511719 0-35.957031 13.375-40.652344 31.4375h-42.847656v-156.238281h164.5v55.183593c0 5.523438 4.476562 10 10 10s10-4.476562 10-10v-64.070312c0-.296875-.007812-.59375-.011719-.890625.003907-.074219.011719-.148437.011719-.222656 0-.125-.015625-.25-.019531-.375-.800781-60.109375-49.9375-108.761719-110.230469-108.761719h-168.5c-60.292969 0-109.429688 48.652344-110.2304688 108.761719-.0039062.125-.0195312.246093-.0195312.375 0 .074219.0117188.148437.0117188.222656-.0039063.296875-.0117188.59375-.0117188.890625v240.296875c0 36.082031 29.113281 65.476563 65.082031 65.96875l-62.914062 79.265625c-3.433594 4.328125-2.710938 10.617188 1.617187 14.050781 1.835938 1.460938 4.03125 2.167969 6.207032 2.167969 2.949218 0 5.867187-1.296875 7.839843-3.78125l34.058594-42.914062h201.933594c7.625 10.664062 20.097656 17.632812 34.175781 17.632812h63.101562l20.066407 25.28125c1.972656 2.484375 4.890625 3.78125 7.839843 3.78125 2.175782 0 4.371094-.707031 6.207032-2.167969 4.328125-3.433593 5.050781-9.722656 1.617187-14.050781l-10.195312-12.84375h93.363281c23.160156 0 42-18.839844 42-42v-155c0-23.160156-18.839844-42-42-42zm-182 20h29v14.0625c0 5.523438 4.476562 10 10 10s10-4.476562 10-10v-14.0625h32v14.0625c0 5.523438 4.476562 10 10 10s10-4.476562 10-10v-14.0625h32v14.0625c0 5.523438 4.476562 10 10 10s10-4.476562 10-10v-14.0625h29c12.132812 0 22 9.867188 22 22v22.0625h-226v-22.0625c0-12.128906 9.867188-22 22-22zm-103.5 11.433594h-164.5v-156.234375h164.5zm-74.25-255.371094h168.5c46 0 84.070312 34.597656 89.566406 79.136719h-347.632812c5.496094-44.539063 43.566406-79.136719 89.566406-79.136719zm-90.25 330.546875v-55.175781h226v40.582031h-111.4375c-5.523438 0-10 4.480469-10 10 0 5.523437 4.476562 10 10 10h111.4375v40.582031h-180.007812c-25.359376 0-45.992188-20.628906-45.992188-45.988281zm47.765625 94.757813 22.832031-28.769532h155.402344v24.402344c0 1.472656.078125 2.929688.226562 4.367188zm402.234375 17.632812h-182c-12.132812 0-22-9.867188-22-22v-112.9375h226v112.9375c0 12.128906-9.867188 22-22 22zm0 0"/><path d="m420.261719 365.054688-41.761719 41.761718-17.347656-17.34375c-3.902344-3.90625-10.234375-3.90625-14.140625 0-3.90625 3.902344-3.90625 10.234375 0 14.140625l24.417969 24.417969c1.953124 1.949219 4.511718 2.929688 7.070312 2.929688s5.117188-.980469 7.070312-2.929688l48.832032-48.835938c3.90625-3.902343 3.90625-10.234374 0-14.140624-3.902344-3.902344-10.234375-3.90625-14.140625 0zm0 0"/><path d="m154.667969 74h79.667969c5.519531 0 10-4.476562 10-10s-4.480469-10-10-10h-79.667969c-5.523438 0-10 4.476562-10 10s4.476562 10 10 10zm0 0"/></svg>