<svg height="511pt" viewBox="0 1 511.9998 511" width="511pt" xmlns="http://www.w3.org/2000/svg"><path d="m441 502.496094-55-120h-260l-55 120zm0 0" fill="#d8d8e4"/><g fill="#898998"><path d="m86.585938 468.496094h335.746093l-18.25-40h-296.511719zm0 0"/><path d="m441 502.496094-55-120 29.761719-16.175782 86.234375 136.175782zm0 0"/><path d="m71 502.496094 55-120-29.765625-16.175782-86.234375 136.175782zm0 0"/></g><path d="m315.996094 10.5h-119.992188c-66.277344 0-120.003906 53.726562-120.003906 120.003906v189.992188c0 34.242187 27.757812 62 62 62h236c34.242188 0 62-27.757813 62-62v-189.992188c0-66.277344-53.730469-120.003906-120.003906-120.003906zm0 0" fill="#6a80ff"/><path d="m434.640625 188.460938-18.003906 14.480468c-54.371094 43.742188-85.996094 109.769532-85.996094 179.554688h43.359375c34.242188 0 62-27.757813 62-62v-132.039063h-1.359375zm0 0" fill="#ffb954"/><path d="m77.359375 188.460938 18 14.480468c54.375 43.742188 86 109.769532 86 179.558594h-43.359375c-34.242188 0-62-27.757812-62-62v-132.039062zm0 0" fill="#ffb954"/><path d="m388 130.503906c0-39.765625-32.238281-72.003906-72.007812-72.003906h-119.988282c-39.765625 0-72.003906 32.238281-72.003906 72.003906v42.328125l37.667969 37.667969h188.664062c14.710938-14.710938 22.957031-22.957031 37.667969-37.667969zm0 0" fill="#fff"/><path d="m510.445312 497.148438-82.046874-129.566407c10.949218-12.632812 17.601562-29.09375 17.601562-47.085937v-189.992188c0-71.683594-58.320312-130.003906-130.003906-130.003906h-119.992188c-71.683594 0-130.003906 58.320312-130.003906 130.003906v189.992188c0 17.992187 6.648438 34.453125 17.597656 47.085937l-82.042968 129.566407c-2.957032 4.664062-1.570313 10.84375 3.097656 13.796874 1.660156 1.050782 3.511718 1.554688 5.339844 1.554688 3.3125 0 6.554687-1.644531 8.457031-4.652344l80.40625-126.96875c4.277343 2.785156 8.859375 5.125 13.699219 6.960938l-50.644532 110.488281c-2.300781 5.023437-.097656 10.957031 4.925782 13.261719 1.347656.617187 2.765624.910156 4.160156.910156 3.789062 0 7.414062-2.167969 9.09375-5.835938l12.910156-28.167968h326l12.910156 28.167968c1.679688 3.667969 5.304688 5.835938 9.09375 5.835938 1.394532 0 2.8125-.292969 4.160156-.910156 5.023438-2.304688 7.226563-8.238282 4.925782-13.261719l-50.640625-110.488281c4.835937-1.835938 9.421875-4.179688 13.695312-6.960938l80.40625 126.96875c1.902344 3.007813 5.144531 4.648438 8.457031 4.648438 1.828126 0 3.679688-.5 5.339844-1.550782 4.667969-2.953124 6.054688-9.132812 3.097656-13.796874zm-136.445312-124.652344h-33.117188c2.824219-63.285156 32.351563-121.800782 82.023438-161.761719l3.09375-2.488281v112.25c0 28.675781-23.328125 52-52 52zm-177.996094-351.996094h119.988282c60.660156 0 110.007812 49.347656 110.007812 110.003906v52.074219l-15.628906 12.570313c-27.835938 22.398437-50.707032 51.265624-66.140625 83.484374-13.992188 29.21875-21.980469 61.46875-23.355469 93.863282h-129.730469c-.882812-21.300782-4.582031-42.351563-11.042969-62.714844-1.671874-5.261719-7.292968-8.175781-12.558593-6.503906-5.261719 1.667968-8.175781 7.289062-6.503907 12.554687 5.835938 18.398438 9.210938 37.417969 10.082032 56.664063h-33.121094c-28.671875 0-52-23.324219-52-52v-112.25l3.09375 2.488281c12.46875 10.027344 23.859375 21.441406 33.855469 33.921875 1.976562 2.464844 4.878906 3.746094 7.8125 3.746094 2.191406 0 4.398437-.71875 6.246093-2.195313 4.308594-3.453125 5.003907-9.746093 1.550782-14.058593-10.90625-13.609376-23.332032-26.058594-36.929688-37l-15.628906-12.574219v-52.070313c0-60.65625 49.347656-110.003906 110.003906-110.003906zm-93.835937 437.996094 9.167969-20h289.328124l9.167969 20zm289.332031-40h-271l12.023438-26.226563c1.808593.136719 3.632812.226563 5.476562.226563h236c1.84375 0 3.667969-.089844 5.476562-.226563zm0 0"/><path d="m395.75 304.5h-13.75c-5.523438 0-10 4.476562-10 10 0 5.519531 4.476562 9.996094 10 9.996094h13.75c5.519531 0 10-4.476563 10-9.996094 0-5.523438-4.480469-10-10-10zm0 0"/><path d="m130 304.5h-13.75c-5.523438 0-10 4.476562-10 10 0 5.519531 4.476562 9.996094 10 9.996094h13.75c5.523438 0 10-4.476563 10-9.996094 0-5.523438-4.476562-10-10-10zm0 0"/><path d="m154.597656 217.570312c1.875 1.875 4.417969 2.929688 7.070313 2.929688h188.664062c2.652344 0 5.195313-1.054688 7.070313-2.929688l37.667968-37.667968c1.875-1.875 2.929688-4.417969 2.929688-7.070313v-42.328125c0-45.214844-36.789062-82.003906-82.003906-82.003906h-119.992188c-45.214844 0-82.003906 36.789062-82.003906 82.003906v42.328125c0 2.652344 1.054688 5.195313 2.929688 7.070313zm223.402344-87.066406v38.1875l-31.808594 31.808594h-80.191406v-132h49.996094c34.1875 0 62.003906 27.816406 62.003906 62.003906zm-244 0c0-34.1875 27.816406-62.003906 62.003906-62.003906h49.996094v132h-80.191406l-31.808594-31.808594zm0 0"/><path d="m280.5 246.625h-48.746094c-5.523437 0-10 4.476562-10 10s4.476563 10 10 10h48.746094c5.523438 0 10-4.476562 10-10s-4.476562-10-10-10zm0 0"/><path d="m280.5 286.625h-48.746094c-5.523437 0-10 4.476562-10 10s4.476563 10 10 10h48.746094c5.523438 0 10-4.476562 10-10s-4.476562-10-10-10zm0 0"/><path d="m280.5 326.625h-48.746094c-5.523437 0-10 4.476562-10 10s4.476563 10 10 10h48.746094c5.523438 0 10-4.476562 10-10s-4.476562-10-10-10zm0 0"/><path d="m147.019531 266.59375-.070312.070312c-3.90625 3.90625-3.90625 10.238282 0 14.144532 1.953125 1.949218 4.511719 2.925781 7.070312 2.925781 2.558594 0 5.117188-.976563 7.070313-2.925781l.070312-.074219c3.90625-3.902344 3.90625-10.234375 0-14.140625-3.902344-3.90625-10.234375-3.90625-14.140625 0zm0 0"/></svg>