<svg height="512pt" viewBox="0 0 512 512" width="512pt" xmlns="http://www.w3.org/2000/svg"><g fill="#ffb954"><path d="m296 482c0 11.046875-8.953125 20-20 20s-20-8.953125-20-20 8.953125-20 20-20 20 8.953125 20 20zm0 0"/><path d="m444.019531 482c0 11.046875-8.953125 20-20 20s-20-8.953125-20-20 8.953125-20 20-20 20 8.953125 20 20zm0 0"/><path d="m444.019531 344.6875c0 11.046875-8.953125 20-20 20s-20-8.953125-20-20 8.953125-20 20-20 20 8.953125 20 20zm0 0"/><path d="m203.667969 104.167969c0 11.042969-8.957031 20-20 20-11.046875 0-20-8.957031-20-20 0-11.046875 8.953125-20 20-20 11.042969 0 20 8.953125 20 20zm0 0"/><path d="m322.886719 223.386719c0 11.046875-8.957031 20-20 20-11.046875 0-20-8.953125-20-20s8.953125-20 20-20c11.042969 0 20 8.953125 20 20zm0 0"/></g><path d="m15.46875 299.09375c0-62.148438 50.382812-112.53125 112.53125-112.53125s112.53125 50.382812 112.53125 112.53125c0 26.941406-9.472656 51.667969-25.261719 71.039062h.007813l-87.277344 111.867188-86.859375-111.28125h.0625c-16.074219-19.457031-25.734375-44.414062-25.734375-71.625zm0 0" fill="#ff5d5d"/><path d="m188 300.890625c0 33.136719-26.863281 60-60 60s-60-26.863281-60-60c0-33.140625 26.863281-60 60-60s60 26.859375 60 60zm0 0" fill="#fff"/><path d="m502 148.605469c0-43.34375-35.136719-78.480469-78.480469-78.480469s-78.480469 35.136719-78.480469 78.480469c0 18.789062 6.605469 36.035156 17.617188 49.546875h-.003906l60.867187 78.015625 60.578125-77.609375h-.046875c11.210938-13.570313 17.949219-30.972656 17.949219-49.953125zm0 0" fill="#a0e557"/><path d="m457.003906 148.605469c0 18.496093-14.992187 33.488281-33.484375 33.488281-18.496093 0-33.488281-14.992188-33.488281-33.488281 0-18.492188 14.992188-33.484375 33.488281-33.484375 18.492188 0 33.484375 14.992187 33.484375 33.484375zm0 0" fill="#fff"/><path d="m198 300.890625c0-38.601563-31.402344-70-70-70s-70 31.398437-70 70c0 38.597656 31.402344 70 70 70s70-31.40625 70-70zm-120 0c0-27.570313 22.429688-50 50-50s50 22.425781 50 50c0 27.570313-22.429688 50-50 50s-50-22.429687-50-50zm0 0"/><path d="m423.519531 192.09375c23.976563 0 43.484375-19.507812 43.484375-43.488281 0-23.976563-19.507812-43.484375-43.484375-43.484375-23.980469 0-43.484375 19.507812-43.484375 43.484375 0 23.980469 19.503906 43.488281 43.484375 43.488281zm0-66.972656c12.949219 0 23.484375 10.535156 23.484375 23.484375s-10.535156 23.488281-23.484375 23.488281-23.484375-10.539062-23.484375-23.488281 10.53125-23.484375 23.484375-23.484375zm0 0"/><path d="m502 472h-49.703125c-3.015625-8.507812-9.769531-15.261719-18.277344-18.28125v-80.75c1.039063-.371094 2.054688-.789062 3.039063-1.265625l57.871094 57.867187c1.953124 1.953126 4.511718 2.929688 7.070312 2.929688s5.117188-.976562 7.070312-2.929688c3.90625-3.90625 3.90625-10.234374 0-14.140624l-57.929687-57.933594c1.839844-3.886719 2.878906-8.226563 2.878906-12.808594 0-13.035156-8.363281-24.152344-20-28.28125v-37.4375l57.960938-74.257812c.125-.160157.246093-.324219.359375-.488282 12.683594-15.6875 19.660156-35.398437 19.660156-55.617187 0-45.234375-34.125-82.644531-77.980469-87.855469v-50.75c0-5.523438-4.480469-10-10-10-5.523437 0-10 4.476562-10 10v50.636719c-24.40625 2.617187-45.871093 15.195312-60.242187 33.578125-.3125-.03125-.625-.050782-.945313-.050782h-140.886719c-.332031-.9375-.707031-1.851562-1.128906-2.746093l74.339844-74.339844c3.90625-3.902344 3.90625-10.234375 0-14.140625s-10.234375-3.90625-14.144531 0l-74.242188 74.246094c-3.960937-1.933594-8.40625-3.019532-13.101562-3.019532-13.035157 0-24.152344 8.363282-28.28125 20h-145.386719c-5.523438 0-10 4.476563-10 10 0 5.523438 4.476562 10 10 10h145.386719c.375 1.0625.808593 2.097657 1.296875 3.101563l-64.699219 64.699219c-50.042969 15.421875-86.515625 62.09375-86.515625 117.128906 0 28.054688 9.699219 55.40625 27.335938 77.148438.140624.214843.292968.425781.453124.628906l74.25 95.128906h-97.507812c-5.523438 0-10 4.476562-10 10s4.476562 10 10 10h237.71875c4.128906 11.640625 15.246094 20 28.28125 20s24.152344-8.359375 28.28125-20h91.457031c4.128907 11.640625 15.242188 20 28.28125 20 13.035157 0 24.152344-8.359375 28.28125-20h49.699219c5.523438 0 10-4.476562 10-10s-4.476562-10-10-10zm-77.980469-137.3125c5.511719 0 10 4.488281 10 10 0 5.515625-4.488281 10-10 10-5.515625 0-10-4.484375-10-10 0-5.511719 4.484375-10 10-10zm-.5-254.5625c37.761719 0 68.480469 30.71875 68.480469 68.480469 0 15.886719-5.5625 31.363281-15.65625 43.585937-.238281.289063-.460938.585938-.660156.898438l-52.164063 66.824218-52.792969-67.671874c-.105468-.140626-.207031-.277344-.320312-.410157-9.910156-12.160156-15.367188-27.511719-15.367188-43.226562 0-37.761719 30.71875-68.480469 68.480469-68.480469zm-68.820312 124.09375c.023437.027344.042969.054688.066406.082031l59.253906 75.949219v36.160156c-.960937.339844-1.898437.726563-2.808593 1.15625l-81.257813-81.253906c1.878906-3.917969 2.933594-8.300781 2.933594-12.925781 0-16.542969-13.460938-30-30-30-4.628907 0-9.011719 1.050781-12.929688 2.929687l-79.222656-79.222656c.453125-.949219.855469-1.925781 1.210937-2.929688h130.070313c-4.492187 10.59375-6.980469 22.230469-6.980469 34.441407.003906 20.199219 6.984375 39.933593 19.664063 55.613281zm-45.035157 25.945312c-.484374.488282-.90625 1.007813-1.269531 1.558594-1.582031 1.046875-3.472656 1.664063-5.507812 1.664063-5.515625 0-10-4.488281-10-10 0-5.515625 4.484375-10 10-10 5.511719 0 10 4.484375 10 10 0 2.03125-.613281 3.925781-1.664063 5.503906-.546875.367187-1.070312.789063-1.558594 1.273437zm-125.996093-135.996093c5.511719 0 10 4.484375 10 10 0 5.511719-4.488281 10-10 10-5.515625 0-10-4.488281-10-10 0-5.515625 4.484375-10 10-10zm-134.753907 270.183593c-15.117187-18.300781-23.445312-41.476562-23.445312-65.257812 0-56.535156 45.996094-102.53125 102.53125-102.53125 18.765625 0 37.113281 5.113281 53.0625 14.78125 4.726562 2.863281 10.875 1.355469 13.738281-3.367188 2.859375-4.722656 1.351563-10.875-3.371093-13.738281-19.078126-11.5625-41.011719-17.675781-63.429688-17.675781-.789062 0-1.574219.015625-2.355469.03125l45.277344-45.277344c3.867187 1.824219 8.1875 2.847656 12.742187 2.847656 4.625 0 9.011719-1.050781 12.929688-2.929687l79.222656 79.226563c-1.878906 3.914062-2.929687 8.296874-2.929687 12.921874 0 16.542969 13.457031 30 30 30 4.625 0 9.007812-1.054687 12.925781-2.929687l81.191406 81.195313c-.476562.984374-.894531 2-1.265625 3.039062h-150.515625c3.484375-11.476562 5.308594-23.472656 5.308594-35.59375 0-14.664062-2.566406-29.015625-7.628906-42.648438-1.921875-5.179687-7.679688-7.816406-12.855469-5.894531-5.179687 1.921875-7.816406 7.675781-5.894531 12.855469 4.230468 11.398438 6.378906 23.40625 6.378906 35.6875 0 23.527344-8.175781 46.515625-23.015625 64.722656-.117187.144532-.234375.296875-.34375.449219l-79.175781 101.476563-78.324219-100.34375c-.226563-.363282-.480469-.710938-.757813-1.046876zm174.246094 11.933594c.03125-.039062.0625-.082031.09375-.121094 5.402344-6.671874 10.054688-13.882812 13.917969-21.476562h158.566406c3.019531 8.507812 9.769531 15.261719 18.28125 18.28125v80.75c-8.511719 3.019531-15.261719 9.773438-18.28125 18.28125h-91.457031c-4.128906-11.640625-15.246094-20-28.28125-20s-24.152344 8.359375-28.28125 20h-99.234375zm52.839844 115.714844c-5.515625 0-10-4.484375-10-10s4.484375-10 10-10 10 4.484375 10 10-4.484375 10-10 10zm148.019531 0c-5.515625 0-10-4.484375-10-10s4.484375-10 10-10c5.511719 0 10 4.484375 10 10s-4.488281 10-10 10zm0 0"/><path d="m215.890625 238.820312c2.628906 0 5.210937-1.070312 7.070313-2.929687 1.859374-1.859375 2.929687-4.441406 2.929687-7.070313 0-2.628906-1.070313-5.210937-2.929687-7.070312-1.859376-1.859375-4.441407-2.929688-7.070313-2.929688s-5.210937 1.070313-7.070313 2.929688c-1.859374 1.859375-2.929687 4.441406-2.929687 7.070312 0 2.628907 1.070313 5.210938 2.929687 7.070313 1.859376 1.859375 4.441407 2.929687 7.070313 2.929687zm0 0"/></svg>